# xmcd CD database file
#
# Track frame offsets:
#	150
#	29035
#	63041
#	85232
#	110059
#	129166
#
# Disc length: 2816 seconds
#
# Revision: 0
# Processed by: cddbd v1.5.1PL0 Copyright (c) Steve Scherf et al.
# Submitted via: CDex 1.51
#
DISCID=490afe06
DTITLE=MAGMA - Spiritual - disc 2
DYEAR=2000
DGENRE=Progressive Rock
TTITLE0=Kobah
TTITLE1=The last 7 minutes
TTITLE2=Lihns
TTITLE3=Maahnt
TTITLE4=Udu Wudu
TTITLE5=Makanik zain
EXTD=YEAR: 2000
EXTT0=
EXTT1=
EXTT2=
EXTT3=
EXTT4=
EXTT5=
PLAYORDER=
